# xmcd
#
# Track frame offsets:
# 150
# 9827
# 27452
# 41025
# 52232
# 67790
# 81922
# 91492
# 106015
# 122080
# 137617
# 150332
#
# Disc length: 2165 seconds
#
#
# Revision: 1
# Processed by: cddbd v1.5.1PL0 Copyright (c) Steve Scherf et al.
# Submitted via: FreeRIP 2.942 
#
DISCID=8f08730c
DTITLE=Ralph Stanley - Clinch Mountain Gospel
DYEAR=2001
DGENRE=Gospel
TTITLE0=Over In The Gloryland
TTITLE1=Beautiful Star Of Bethlehem
TTITLE2=Oh, Death
TTITLE3=There'll Be None On The Other Side
TTITLE4=Mother's Not Dead
TTITLE5=Jesus Savior Pilot Me
TTITLE6=Travelling The Highway Home
TTITLE7=I've Just Seen the Rock Of Ages
TTITLE8=Amazing Grace
TTITLE9=What A Price
TTITLE10=Are You Afraid To Die
TTITLE11=I Am Weary (Let Me Rest)
EXTD=Rebel Records
EXTT0=
EXTT1=
EXTT2=
EXTT3=
EXTT4=
EXTT5=
EXTT6=
EXTT7=
EXTT8=
EXTT9=
EXTT10=
EXTT11=
PLAYORDER=
